<?xml version="1.0" encoding="UTF-8" standalone="no"?>
<svg
   width="81.999435"
   height="81.999962"
   viewBox="0 0 81.999435 81.999962"
   class="w-24 lg:w-32"
   version="1.1"
   id="svg13"
   sodipodi:docname="sigmagon.svg"
   inkscape:version="1.2 (dc2aeda, 2022-05-15)"
   xmlns:inkscape="http://www.inkscape.org/namespaces/inkscape"
   xmlns:sodipodi="http://sodipodi.sourceforge.net/DTD/sodipodi-0.dtd"
   xmlns="http://www.w3.org/2000/svg"
   xmlns:svg="http://www.w3.org/2000/svg">
  <defs
     id="defs17" />
  <sodipodi:namedview
     id="namedview15"
     pagecolor="#ffffff"
     bordercolor="#000000"
     borderopacity="0.25"
     inkscape:showpageshadow="2"
     inkscape:pageopacity="0.0"
     inkscape:pagecheckerboard="0"
     inkscape:deskcolor="#d1d1d1"
     showgrid="false"
     inkscape:zoom="6.5276765"
     inkscape:cx="50.553976"
     inkscape:cy="34.392023"
     inkscape:window-width="1594"
     inkscape:window-height="859"
     inkscape:window-x="0"
     inkscape:window-y="38"
     inkscape:window-maximized="0"
     inkscape:current-layer="svg13" />
  <path
     class="fill-black dark:fill-white"
     d="m 41.000218,0 c -0.422,0 -0.84,0.083 -1.23,0.244 l -26.718,11.07 c -0.786844,0.32548 -1.412067,0.950343 -1.738,1.737 L 0.24421771,39.771 c -0.32562361,0.786634 -0.32562361,1.670366 0,2.457 L 11.314218,68.947 c 0.325372,0.787031 0.950782,1.412081 1.738,1.737 l 26.719,11.07 c 0.786171,0.327945 1.670829,0.327945 2.457,0 l 26.72,-11.07 c 0.786529,-0.325606 1.411394,-0.950471 1.737,-1.737 l 11.07,-26.72 c 0.325624,-0.786634 0.325624,-1.670366 0,-2.457 l -11.07,-26.719 c -0.326491,-0.786283 -0.951529,-1.410962 -1.738,-1.737 l -26.719,-11.07 C 41.838687,0.08345233 41.421537,5.6601938e-4 41.000218,0 Z"
     id="path11"
     sodipodi:nodetypes="cccccccccccccccccc" />
</svg>
